# xmcd
#
# Track frame offsets:
# 150
# 3522
# 9863
# 18704
# 33366
# 46145
# 52791
# 58813
# 61910
# 67871
# 71723
# 80627
# 86112
# 95918
# 100972
# 107399
# 116640
# 117590
# 121299
# 129385
# 148586
# 149505
#
# Disc length: 2135 seconds
#
# Revision: 0
# Processed by: cddbd v1.5.2PL0 Copyright (c) Steve Scherf et al.
# Submitted via: Audion 3.0.2 (http://www.panic.com/audion/)
#
DISCID=34085516
DTITLE=PEEDI CRAKK - PEEDI CRAKK
DYEAR=1900
DGENRE=
TTITLE0=MIXFIEND 
TTITLE1=TORTURE
TTITLE2=HIT ME 
TTITLE3=MONA LISA
TTITLE4=CALLIN MY JACK
TTITLE5=SMILE AT ME 
TTITLE6=CRIMINOLOGY
TTITLE7=FUCK YOUR BARS
TTITLE8=KNOCK EM OUT THE BOX
TTITLE9=LIL NIGGA
TTITLE10=FIND US
TTITLE11=THOUGHT I SEEN US 
TTITLE12=OUT OF CONTROL
TTITLE13=DJ WHO KIDD
TTITLE14=SET YOU UP
TTITLE15=ONE
TTITLE16=SKIT
TTITLE17=READ MY LIPS
TTITLE18=KRAMER SKIT
TTITLE19=TAKE ME HOME
TTITLE20=SKIT
TTITLE21=MIN FIEND
EXTD=
EXTT0=
EXTT1=
EXTT2=
EXTT3=
EXTT4=
EXTT5=
EXTT6=
EXTT7=
EXTT8=
EXTT9=
EXTT10=
EXTT11=
EXTT12=
EXTT13=
EXTT14=
EXTT15=
EXTT16=
EXTT17=
EXTT18=
EXTT19=
EXTT20=
EXTT21=
PLAYORDER=
